<svg width="20" height="20" viewBox="0 0 20 20" fill="none" xmlns="http://www.w3.org/2000/svg">
<mask id="mask0_1_2898" style="mask-type:luminance" maskUnits="userSpaceOnUse" x="0" y="0" width="20" height="20">
<rect width="20" height="20" fill="white"/>
</mask>
<g mask="url(#mask0_1_2898)">
<path fill-rule="evenodd" clip-rule="evenodd" d="M15.8333 11.3216V8.33329C15.8333 5.65246 14.0125 3.39413 11.5458 2.71496C11.3017 2.09996 10.705 1.66663 10 1.66663C9.295 1.66663 8.69833 2.09996 8.45417 2.71496C5.9875 3.39496 4.16667 5.65246 4.16667 8.33329V11.3216L2.74417 12.7441C2.5875 12.9 2.5 13.1116 2.5 13.3333V15C2.5 15.4608 2.8725 15.8333 3.33333 15.8333H16.6667C17.1275 15.8333 17.5 15.4608 17.5 15V13.3333C17.5 13.1116 17.4125 12.9 17.2558 12.7441L15.8333 11.3216ZM15.8335 14.1666H4.16687V13.6783L5.58937 12.2558C5.74604 12.1 5.83354 11.8883 5.83354 11.6666V8.33329C5.83354 6.03579 7.7027 4.16663 10.0002 4.16663C12.2977 4.16663 14.1669 6.03579 14.1669 8.33329V11.6666C14.1669 11.8883 14.2544 12.1 14.411 12.2558L15.8335 13.6783V14.1666ZM9.99994 18.3333C11.0924 18.3333 12.0058 17.6383 12.3483 16.6666H7.65161C7.99411 17.6383 8.90744 18.3333 9.99994 18.3333Z" fill="#CED4DA"/>
</g>
</svg>
