<svg width="20" height="20" viewBox="0 0 20 20" fill="none" xmlns="http://www.w3.org/2000/svg">
<mask id="mask0_1_2907" style="mask-type:luminance" maskUnits="userSpaceOnUse" x="0" y="0" width="20" height="20">
<rect width="20" height="20" fill="white"/>
</mask>
<g mask="url(#mask0_1_2907)">
<path fill-rule="evenodd" clip-rule="evenodd" d="M17.2854 10.8708C16.7212 11.0208 16.1387 11.0966 15.5546 11.0966C13.7754 11.0966 12.1046 10.405 10.8496 9.14997C9.17622 7.47664 8.51706 5.0108 9.12956 2.71414C9.20622 2.42664 9.12372 2.11997 8.91372 1.90997C8.70372 1.69997 8.39789 1.61497 8.10872 1.69497C6.69039 2.07414 5.39706 2.8183 4.36789 3.84664C1.11956 7.09497 1.11956 12.3825 4.36789 15.6325C5.94206 17.2066 8.03539 18.0741 10.2612 18.0741C12.4871 18.0741 14.5796 17.2075 16.1529 15.6333C17.1829 14.6025 17.9279 13.3075 18.3054 11.8908C18.3821 11.6033 18.2987 11.2966 18.0887 11.0866C17.8787 10.8758 17.5712 10.7925 17.2854 10.8708ZM14.9755 14.455C13.7163 15.7141 12.0421 16.4075 10.2621 16.4075C8.48131 16.4075 6.80714 15.7133 5.54714 14.4541C2.94881 11.855 2.94881 7.62498 5.54714 5.02581C6.04881 4.52414 6.62881 4.10748 7.26381 3.78998C7.07881 6.19414 7.94214 8.59998 9.67214 10.33C11.3955 12.0541 13.778 12.93 16.2121 12.7391C15.8938 13.3716 15.4763 13.9525 14.9755 14.455Z" fill="#CED4DA"/>
</g>
</svg>
