<svg width="22" height="22" viewBox="0 0 22 22" fill="none" xmlns="http://www.w3.org/2000/svg">
<mask id="mask0_1_2928" style="mask-type:luminance" maskUnits="userSpaceOnUse" x="0" y="0" width="22" height="22">
<rect width="22" height="22" fill="white"/>
</mask>
<g mask="url(#mask0_1_2928)">
<path fill-rule="evenodd" clip-rule="evenodd" d="M9.16667 2.75H3.66667C3.16041 2.75 2.75 3.16041 2.75 3.66667V9.16667C2.75 9.67293 3.16041 10.0833 3.66667 10.0833H9.16667C9.67293 10.0833 10.0833 9.67293 10.0833 9.16667V3.66667C10.0833 3.16041 9.67293 2.75 9.16667 2.75ZM8.25016 8.24998H4.5835V4.58331H8.25016V8.24998ZM18.3332 11.9167H12.8332C12.3269 11.9167 11.9165 12.3271 11.9165 12.8334V18.3334C11.9165 18.8396 12.3269 19.25 12.8332 19.25H18.3332C18.8394 19.25 19.2498 18.8396 19.2498 18.3334V12.8334C19.2498 12.3271 18.8394 11.9167 18.3332 11.9167ZM17.4167 17.4167H13.75V13.75H17.4167V17.4167ZM15.5832 2.75C13.561 2.75 11.9165 4.3945 11.9165 6.41667C11.9165 8.43883 13.561 10.0833 15.5832 10.0833C17.6053 10.0833 19.2498 8.43883 19.2498 6.41667C19.2498 4.3945 17.6053 2.75 15.5832 2.75ZM15.5833 8.24998C14.5723 8.24998 13.75 7.42773 13.75 6.41665C13.75 5.40556 14.5723 4.58331 15.5833 4.58331C16.5944 4.58331 17.4167 5.40556 17.4167 6.41665C17.4167 7.42773 16.5944 8.24998 15.5833 8.24998ZM6.41667 11.9167C4.3945 11.9167 2.75 13.5612 2.75 15.5834C2.75 17.6055 4.3945 19.25 6.41667 19.25C8.43883 19.25 10.0833 17.6055 10.0833 15.5834C10.0833 13.5612 8.43883 11.9167 6.41667 11.9167ZM6.41683 17.4167C5.40575 17.4167 4.5835 16.5944 4.5835 15.5833C4.5835 14.5722 5.40575 13.75 6.41683 13.75C7.42791 13.75 8.25016 14.5723 8.25016 15.5833C8.25016 16.5944 7.42791 17.4167 6.41683 17.4167Z" fill="#CED4DA"/>
</g>
</svg>
