<svg width="32" height="32" viewBox="0 0 32 32" fill="none" xmlns="http://www.w3.org/2000/svg">
<circle cx="16" cy="16" r="16" fill="#2A2F34"/>
<path fill-rule="evenodd" clip-rule="evenodd" d="M14.3757 11.125H17.6257L18.709 12.2083H20.8757C21.1748 12.2083 21.4173 12.4508 21.4173 12.75V20.3333C21.4173 20.6325 21.1748 20.875 20.8757 20.875H11.1257C10.8265 20.875 10.584 20.6325 10.584 20.3333V12.75C10.584 12.4508 10.8265 12.2083 11.1257 12.2083H13.2923L14.3757 11.125ZM16.0005 19.792C17.7954 19.792 19.2505 18.3369 19.2505 16.542C19.2505 14.7471 17.7954 13.292 16.0005 13.292C14.2056 13.292 12.7505 14.7471 12.7505 16.542C12.7505 18.3369 14.2055 19.792 16.0005 19.792H16.0005ZM16.0007 18.7083C15.2266 18.7083 14.5113 18.2954 14.1243 17.625C13.7372 16.9546 13.7372 16.1287 14.1243 15.4583C14.5113 14.788 15.2266 14.375 16.0007 14.375C16.7747 14.375 17.49 14.788 17.877 15.4583C18.2641 16.1287 18.2641 16.9546 17.877 17.625C17.49 18.2954 16.7747 18.7083 16.0007 18.7083Z" fill="#CED4DA"/>
</svg>
