<svg width="20" height="19" viewBox="0 0 20 19" fill="none" xmlns="http://www.w3.org/2000/svg">
<path d="M5.32129 13C5.27572 13 5.25293 12.9772 5.25293 12.9316V12.583C5.25293 12.5329 5.27572 12.5078 5.32129 12.5078L6.41504 12.4121C6.46061 12.4121 6.4834 12.3893 6.4834 12.3438V7.66797C6.46973 7.64062 6.44694 7.62695 6.41504 7.62695H5.37598C5.3304 7.62695 5.30762 7.60189 5.30762 7.55176V7.20312C5.30762 7.15755 5.3304 7.13477 5.37598 7.13477L6.41504 7.00488C6.46061 7.00488 6.4834 6.9821 6.4834 6.93652V6.30762C6.4834 5.96582 6.49707 5.66732 6.52441 5.41211C6.55176 5.1569 6.59277 4.93132 6.64746 4.73535C6.70671 4.53939 6.7819 4.36849 6.87305 4.22266C6.96419 4.07682 7.07357 3.94238 7.20117 3.81934C7.40625 3.61426 7.67969 3.44564 8.02148 3.31348C8.36784 3.18132 8.78939 3.11523 9.28613 3.11523C9.41829 3.11523 9.56413 3.12435 9.72363 3.14258C9.88314 3.16081 10.0449 3.18587 10.209 3.21777C10.373 3.24967 10.5326 3.28841 10.6875 3.33398C10.847 3.375 10.9906 3.41829 11.1182 3.46387C11.141 3.47298 11.1569 3.48665 11.166 3.50488C11.1797 3.52311 11.1865 3.53906 11.1865 3.55273V5.10449C11.1865 5.14095 11.1637 5.15918 11.1182 5.15918H10.5986C10.585 5.15918 10.569 5.15462 10.5508 5.14551C10.5371 5.13184 10.5303 5.11816 10.5303 5.10449L10.332 4.12695C10.3229 4.07682 10.2956 4.03809 10.25 4.01074C10.1999 3.97884 10.1338 3.94922 10.0518 3.92188C9.97428 3.89453 9.8877 3.86947 9.79199 3.84668C9.69629 3.82389 9.59603 3.80566 9.49121 3.79199C9.38639 3.77832 9.28385 3.77148 9.18359 3.77148C8.89193 3.77148 8.64583 3.81022 8.44531 3.8877C8.24935 3.96517 8.08984 4.08366 7.9668 4.24316C7.84375 4.40267 7.75488 4.60547 7.7002 4.85156C7.64551 5.0931 7.61816 5.37793 7.61816 5.70605V6.90918C7.61816 6.95475 7.64095 6.97754 7.68652 6.97754H9.35449C9.45475 6.97754 9.54818 6.97526 9.63477 6.9707C9.72135 6.96615 9.81478 6.95931 9.91504 6.9502L11.0361 6.85449C11.0726 6.85449 11.0977 6.85221 11.1113 6.84766C11.1296 6.8431 11.1501 6.84082 11.1729 6.84082H11.5078C11.5579 6.84082 11.583 6.86361 11.583 6.90918V12.3438C11.583 12.3893 11.6058 12.4121 11.6514 12.4121L12.5605 12.5078C12.6061 12.5078 12.6289 12.5329 12.6289 12.583V12.9316C12.6289 12.9772 12.6061 13 12.5605 13H9.46387C9.41829 13 9.39551 12.9772 9.39551 12.9316V12.583C9.39551 12.5329 9.41829 12.5078 9.46387 12.5078L10.373 12.4121C10.4232 12.4121 10.4482 12.3893 10.4482 12.3438V7.69531C10.4482 7.64974 10.4232 7.62695 10.373 7.62695H7.68652C7.64095 7.62695 7.61816 7.64974 7.61816 7.69531V12.3438C7.61816 12.3893 7.64095 12.4121 7.68652 12.4121L8.63672 12.5078C8.68685 12.5078 8.71191 12.5329 8.71191 12.583V12.9316C8.71191 12.9772 8.68685 13 8.63672 13H5.32129Z" fill="#A4B0BF"/>
<g filter="url(#filter0_d_1_2882)">
<rect x="1" y="1" width="16" height="16" stroke="#A4B0BF" stroke-width="2"/>
</g>
<defs>
<filter id="filter0_d_1_2882" x="0" y="0" width="20" height="19" filterUnits="userSpaceOnUse" color-interpolation-filters="sRGB">
<feFlood flood-opacity="0" result="BackgroundImageFix"/>
<feColorMatrix in="SourceAlpha" type="matrix" values="0 0 0 0 0 0 0 0 0 0 0 0 0 0 0 0 0 0 127 0" result="hardAlpha"/>
<feMorphology radius="1" operator="erode" in="SourceAlpha" result="effect1_dropShadow_1_2882"/>
<feOffset dx="2" dy="1"/>
<feGaussianBlur stdDeviation="0.5"/>
<feColorMatrix type="matrix" values="0 0 0 0 0.392157 0 0 0 0 0.392157 0 0 0 0 0.392157 0 0 0 0.498039 0"/>
<feBlend mode="normal" in2="BackgroundImageFix" result="effect1_dropShadow_1_2882"/>
<feBlend mode="normal" in="SourceGraphic" in2="effect1_dropShadow_1_2882" result="shape"/>
</filter>
</defs>
</svg>
