<svg width="22" height="22" viewBox="0 0 22 22" fill="none" xmlns="http://www.w3.org/2000/svg">
<path fill-rule="evenodd" clip-rule="evenodd" d="M4.58323 11.9167C4.58323 7.25267 7.24432 3.267 10.9999 1.6665C14.7555 3.267 17.4166 7.25267 17.4166 11.9167C17.4166 12.6711 17.3469 13.4072 17.2149 14.1194L18.9932 15.7988C19.1444 15.9419 19.1802 16.1689 19.0803 16.3515L16.7932 20.5453C16.7241 20.6722 16.5991 20.7591 16.456 20.7797C16.3129 20.8002 16.1684 20.7521 16.0663 20.6498L14.0185 18.6019C13.8466 18.43 13.6135 18.3334 13.3704 18.3333H8.6294C8.3863 18.3334 8.15318 18.43 7.98131 18.6019L5.93348 20.6498C5.83136 20.7521 5.68694 20.8002 5.54384 20.7797C5.40073 20.7591 5.27572 20.6722 5.20656 20.5453L2.91948 16.3515C2.81962 16.1689 2.85538 15.9418 3.00656 15.7988L4.7849 14.1194C4.65382 13.4072 4.58323 12.6711 4.58323 11.9167ZM5.93623 18.0546L6.68515 17.3057C7.20075 16.79 7.90011 16.5001 8.6294 16.5L13.3704 16.5C14.0997 16.5001 14.799 16.79 15.3146 17.3057L16.0636 18.0546L16.9637 16.4046L15.9554 15.4513C15.5026 15.0236 15.2978 14.3953 15.4118 13.783C15.5255 13.1743 15.5832 12.5501 15.5832 11.9166C15.5832 8.36914 13.7545 5.22497 10.9999 3.70331C8.24531 5.22498 6.41656 8.36914 6.41656 11.9166C6.41656 12.5501 6.47431 13.1743 6.58798 13.7839C6.70195 14.3962 6.49723 15.0246 6.0444 15.4522L5.03606 16.4046L5.93623 18.0546ZM10.9999 11.9167C10.3449 11.9167 9.73968 11.5672 9.41219 11C9.08469 10.4328 9.08469 9.7339 9.41219 9.16667C9.73968 8.59943 10.3449 8.25 10.9999 8.25C11.6549 8.25 12.2601 8.59943 12.5876 9.16667C12.9151 9.7339 12.9151 10.4328 12.5876 11C12.2601 11.5672 11.6549 11.9167 10.9999 11.9167Z" fill="#A4B0BF"/>
</svg>
