<svg width="20" height="18" viewBox="0 0 20 18" fill="none" xmlns="http://www.w3.org/2000/svg">
<mask id="mask0_1_2943" style="mask-type:luminance" maskUnits="userSpaceOnUse" x="0" y="0" width="20" height="19">
<rect y="0.00012207" width="19.4148" height="18" fill="white"/>
</mask>
<g mask="url(#mask0_1_2943)">
<path fill-rule="evenodd" clip-rule="evenodd" d="M7.68495 2.25012C10.5891 2.25012 12.9431 4.43262 12.9431 7.12512C12.9431 8.33262 12.4659 9.44262 11.6812 10.2976L11.8996 10.5001H12.5387L16.5834 14.2501L15.37 15.3751L11.3252 11.6251V11.0326L11.1068 10.8301C10.1846 11.5576 8.98736 12.0001 7.68495 12.0001C4.78081 12.0001 2.42676 9.81762 2.42676 7.12512C2.42676 4.43262 4.78081 2.25012 7.68495 2.25012ZM7.68496 3.75012C5.66258 3.75012 4.04468 5.25012 4.04468 7.12512C4.04468 9.00012 5.66258 10.5001 7.68496 10.5001C9.70734 10.5001 11.3252 9.00012 11.3252 7.12512C11.3252 5.25012 9.70734 3.75012 7.68496 3.75012Z" fill="#878A99"/>
</g>
</svg>
