<svg width="22" height="22" viewBox="0 0 22 22" fill="none" xmlns="http://www.w3.org/2000/svg">
<mask id="mask0_1_2919" style="mask-type:luminance" maskUnits="userSpaceOnUse" x="0" y="0" width="22" height="22">
<rect width="22" height="22" fill="white"/>
</mask>
<g mask="url(#mask0_1_2919)">
<path fill-rule="evenodd" clip-rule="evenodd" d="M4.58333 20.1666H17.4167C18.4278 20.1666 19.25 19.3444 19.25 18.3333V8.24998C19.25 7.74306 18.8402 7.33331 18.3333 7.33331H15.5833V6.41665C15.5833 3.8894 13.5273 1.83331 11 1.83331C8.47275 1.83331 6.41667 3.8894 6.41667 6.41665V7.33331H3.66667C3.15975 7.33331 2.75 7.74306 2.75 8.24998V18.3333C2.75 19.3444 3.57225 20.1666 4.58333 20.1666ZM8.25 6.41663C8.25 4.90046 9.48383 3.66663 11 3.66663C12.5162 3.66663 13.75 4.90046 13.75 6.41663V7.33329H8.25V6.41663ZM4.5835 9.16663H6.41683V11H8.25016V9.16663H13.7502V11H15.5835V9.16663H17.4168L17.4187 18.3333H4.5835V9.16663Z" fill="#CED4DA"/>
</g>
</svg>
