<svg width="24" height="24" viewBox="0 0 24 24" fill="none" xmlns="http://www.w3.org/2000/svg">
<path fill-rule="evenodd" clip-rule="evenodd" d="M12 22C6.477 22 2 17.523 2 12C2 6.47697 6.477 1.99997 12 1.99997C17.523 1.99997 22 6.47697 22 12C22 17.523 17.523 22 12 22ZM7.013 18.256C8.42855 19.3876 10.1877 20.0028 12 20C13.97 20 15.773 19.288 17.167 18.108C15.8512 16.7579 14.0452 15.9975 12.16 16C10.2041 15.9977 8.33687 16.8161 7.013 18.256L7.013 18.256ZM5.616 16.8199C7.31472 15.0172 9.68298 13.9966 12.16 13.9999C14.5466 13.9968 16.8361 14.9447 18.522 16.6339C20.8982 13.2896 20.3594 8.68985 17.2747 5.98515C14.19 3.28044 9.55931 3.34753 6.55425 6.14046C3.5492 8.93338 3.14391 13.5468 5.61597 16.8209L5.616 16.8199ZM12 13C10.5709 13 9.25043 12.2376 8.5359 11C7.82137 9.76236 7.82137 8.23757 8.5359 6.99997C9.25043 5.76237 10.5709 4.99997 12 4.99997C13.4291 4.99997 14.7496 5.76237 15.4641 6.99997C16.1786 8.23757 16.1786 9.76236 15.4641 11C14.7496 12.2376 13.4291 13 12 13ZM12 10.9999C13.1046 10.9999 14 10.1045 14 8.99995C14 7.89539 13.1046 6.99995 12 6.99995C10.8954 6.99994 10 7.89537 10 8.99994C10 10.1045 10.8954 10.9999 12 10.9999H12Z" fill="#A4B0BF"/>
</svg>
